<svg aria-hidden="true" style="position: absolute; width: 0; height: 0; overflow: hidden;" version="1.1" xmlns="http://www.w3.org/2000/svg" xmlns:xlink="http://www.w3.org/1999/xlink">
<defs>
<symbol id="icon-arrow" viewBox="0 0 32 32">
<path d="M27.766 17.957c-0.174-1.303-0.286-2.466-0.337-3.49-0.022-1.040 0.017-1.94 0.119-2.7l-25.293 14.603-1.197-2.073 25.293-14.603c-0.728-0.325-1.537-0.758-2.426-1.297-0.861-0.556-1.803-1.218-2.825-1.988l1.519-0.877c3.209 1.349 6.143 2.024 8.804 2.023l0.513 0.888c-1.35 2.271-2.233 5.149-2.65 8.636l-1.519 0.877z"></path>
</symbol>
<symbol id="icon-facebook" viewBox="0 0 32 32">
<path d="M19.52 4.64c0.24 0 0.48 0 0.96 0v3.6c-0.24 0-0.72 0-1.2 0s-0.96 0-1.2 0.24c-0.24 0.24-0.24 0.48-0.24 1.040 0 0.48 0 0.8 0 1.28h2.64v3.040h-2.64v13.2h-4.080v-13.28h-2.16v-3.040h2.16v-1.040c0-1.76 0.24-3.040 0.72-3.6 0.72-1.040 2.16-1.52 4.32-1.52 0.24 0.080 0.48 0.080 0.72 0.080z"></path>
</symbol>
<symbol id="icon-favicon" viewBox="0 0 44 40">
   <path d="M43.9409 39.4565H42.5686V38.0652H43.9409V39.4565Z"></path>
    <path d="M42.5686 39.4565H41.1963V38.0652H42.5686V39.4565Z"></path>
    <path d="M37.0794 39.4565H35.707V38.0652H37.0794V39.4565Z"></path>
    <path d="M35.707 39.4565H34.3347V38.0652H35.707V39.4565Z"></path>
    <path d="M34.3347 39.4565H32.9624V38.0652H34.3347V39.4565Z"></path>
    <path d="M26.1008 39.4565H24.7285V38.0652H26.1008V39.4565Z"></path>
    <path d="M17.8672 39.4565H16.4949V38.0652H17.8672V39.4565Z"></path>
    <path d="M9.63331 39.4565H8.26099V38.0652H9.63331V39.4565Z"></path>
    <path d="M8.26099 39.4565H6.88867V38.0652H8.26099V39.4565Z"></path>
    <path d="M6.88868 39.4565H5.51636V38.0652H6.88868V39.4565Z"></path>
    <path d="M1.39942 39.4565H0.0270996V38.0652H1.39942V39.4565Z"></path>
    <path d="M43.9409 38.0652H42.5686V36.6739H43.9409V38.0652Z"></path>
    <path d="M38.4517 38.0652H37.0793V36.6739H38.4517V38.0652Z"></path>
    <path d="M37.0794 38.0652H35.707V36.6739H37.0794V38.0652Z"></path>
    <path d="M35.707 38.0652H34.3347V36.6739H35.707V38.0652Z"></path>
    <path d="M26.1008 38.0652H24.7285V36.6739H26.1008V38.0652Z"></path>
    <path d="M24.7285 38.0652H23.3562V36.6739H24.7285V38.0652Z"></path>
    <path d="M19.2395 38.0652H17.8672V36.6739H19.2395V38.0652Z"></path>
    <path d="M17.8672 38.0652H16.4949V36.6739H17.8672V38.0652Z"></path>
    <path d="M8.26099 38.0652H6.88867V36.6739H8.26099V38.0652Z"></path>
    <path d="M6.88868 38.0652H5.51636V36.6739H6.88868V38.0652Z"></path>
    <path d="M5.51636 38.0652H4.14404V36.6739H5.51636V38.0652Z"></path>
    <path d="M39.824 36.6739H38.4517V35.2826H39.824V36.6739Z"></path>
    <path d="M38.4517 36.6739H37.0793V35.2826H38.4517V36.6739Z"></path>
    <path d="M37.0794 36.6739H35.707V35.2826H37.0794V36.6739Z"></path>
    <path d="M26.1008 36.6739H24.7285V35.2826H26.1008V36.6739Z"></path>
    <path d="M24.7285 36.6739H23.3562V35.2826H24.7285V36.6739Z"></path>
    <path d="M23.3562 36.6739H21.9839V35.2826H23.3562V36.6739Z"></path>
    <path d="M20.6118 36.6739H19.2395V35.2826H20.6118V36.6739Z"></path>
    <path d="M19.2395 36.6739H17.8672V35.2826H19.2395V36.6739Z"></path>
    <path d="M17.8672 36.6739H16.4949V35.2826H17.8672V36.6739Z"></path>
    <path d="M6.88868 36.6739H5.51636V35.2826H6.88868V36.6739Z"></path>
    <path d="M5.51636 36.6739H4.14404V35.2826H5.51636V36.6739Z"></path>
    <path d="M4.14405 36.6739H2.77173V35.2826H4.14405V36.6739Z"></path>
    <path d="M41.1963 35.2826H39.824V33.8913H41.1963V35.2826Z"></path>
    <path d="M39.824 35.2826H38.4517V33.8913H39.824V35.2826Z"></path>
    <path d="M38.4517 35.2826H37.0793V33.8913H38.4517V35.2826Z"></path>
    <path d="M31.5901 35.2826H30.2178V33.8913H31.5901V35.2826Z"></path>
    <path d="M30.2178 35.2826H28.8455V33.8913H30.2178V35.2826Z"></path>
    <path d="M28.8455 35.2826H27.4731V33.8913H28.8455V35.2826Z"></path>
    <path d="M24.7285 35.2826H23.3562V33.8913H24.7285V35.2826Z"></path>
    <path d="M23.3562 35.2826H21.9839V33.8913H23.3562V35.2826Z"></path>
    <path d="M20.6118 35.2826H19.2395V33.8913H20.6118V35.2826Z"></path>
    <path d="M19.2395 35.2826H17.8672V33.8913H19.2395V35.2826Z"></path>
    <path d="M15.1226 35.2826H13.7502V33.8913H15.1226V35.2826Z"></path>
    <path d="M13.7502 35.2826H12.3779V33.8913H13.7502V35.2826Z"></path>
    <path d="M12.3779 35.2826H11.0056V33.8913H12.3779V35.2826Z"></path>
    <path d="M5.51636 35.2826H4.14404V33.8913H5.51636V35.2826Z"></path>
    <path d="M4.14405 35.2826H2.77173V33.8913H4.14405V35.2826Z"></path>
    <path d="M2.77173 35.2826H1.39941V33.8913H2.77173V35.2826Z"></path>
    <path d="M42.5686 33.8913H41.1963V32.5H42.5686V33.8913Z"></path>
    <path d="M41.1963 33.8913H39.824V32.5H41.1963V33.8913Z"></path>
    <path d="M39.824 33.8913H38.4517V32.5H39.824V33.8913Z"></path>
    <path d="M30.2178 33.8913H28.8455V32.5H30.2178V33.8913Z"></path>
    <path d="M28.8455 33.8913H27.4731V32.5H28.8455V33.8913Z"></path>
    <path d="M27.4731 33.8913H26.1008V32.5H27.4731V33.8913Z"></path>
    <path d="M23.3562 33.8913H21.9839V32.5H23.3562V33.8913Z"></path>
    <path d="M20.6118 33.8913H19.2395V32.5H20.6118V33.8913Z"></path>
    <path d="M16.4949 33.8913H15.1226V32.5H16.4949V33.8913Z"></path>
    <path d="M15.1226 33.8913H13.7502V32.5H15.1226V33.8913Z"></path>
    <path d="M13.7502 33.8913H12.3779V32.5H13.7502V33.8913Z"></path>
    <path d="M4.14405 33.8913H2.77173V32.5H4.14405V33.8913Z"></path>
    <path d="M2.77173 33.8913H1.39941V32.5H2.77173V33.8913Z"></path>
    <path d="M1.39942 33.8913H0.0270996V32.5H1.39942V33.8913Z"></path>
    <path d="M42.5686 32.5H41.1963V31.1087H42.5686V32.5Z"></path>
    <path d="M41.1963 32.5H39.824V31.1087H41.1963V32.5Z"></path>
    <path d="M28.8455 32.5H27.4731V31.1087H28.8455V32.5Z"></path>
    <path d="M27.4731 32.5H26.1008V31.1087H27.4731V32.5Z"></path>
    <path d="M26.1008 32.5H24.7285V31.1087H26.1008V32.5Z"></path>
    <path d="M17.8672 32.5H16.4949V31.1087H17.8672V32.5Z"></path>
    <path d="M16.4949 32.5H15.1226V31.1087H16.4949V32.5Z"></path>
    <path d="M15.1226 32.5H13.7502V31.1087H15.1226V32.5Z"></path>
    <path d="M2.77173 32.5H1.39941V31.1087H2.77173V32.5Z"></path>
    <path d="M1.39942 32.5H0.0270996V31.1087H1.39942V32.5Z"></path>
    <path d="M42.5686 31.1087H41.1963V29.7174H42.5686V31.1087Z"></path>
    <path d="M35.707 31.1087H34.3347V29.7174H35.707V31.1087Z"></path>
    <path d="M23.3562 31.1087H21.9839V29.7174H23.3562V31.1087Z"></path>
    <path d="M20.6118 31.1087H19.2395V29.7174H20.6118V31.1087Z"></path>
    <path d="M8.26099 31.1087H6.88867V29.7174H8.26099V31.1087Z"></path>
    <path d="M1.39942 31.1087H0.0270996V29.7174H1.39942V31.1087Z"></path>
    <path d="M35.707 29.7174H34.3347V28.3261H35.707V29.7174Z"></path>
    <path d="M34.3347 29.7174H32.9624V28.3261H34.3347V29.7174Z"></path>
    <path d="M24.7285 29.7174H23.3562V28.3261H24.7285V29.7174Z"></path>
    <path d="M23.3562 29.7174H21.9839V28.3261H23.3562V29.7174Z"></path>
    <path d="M20.6118 29.7174H19.2395V28.3261H20.6118V29.7174Z"></path>
    <path d="M19.2395 29.7174H17.8672V28.3261H19.2395V29.7174Z"></path>
    <path d="M9.63331 29.7174H8.26099V28.3261H9.63331V29.7174Z"></path>
    <path d="M8.26099 29.7174H6.88867V28.3261H8.26099V29.7174Z"></path>
    <path d="M35.707 28.3261H34.3347V26.9348H35.707V28.3261Z"></path>
    <path d="M34.3347 28.3261H32.9624V26.9348H34.3347V28.3261Z"></path>
    <path d="M32.9624 28.3261H31.5901V26.9348H32.9624V28.3261Z"></path>
    <path d="M26.1008 28.3261H24.7285V26.9348H26.1008V28.3261Z"></path>
    <path d="M24.7285 28.3261H23.3562V26.9348H24.7285V28.3261Z"></path>
    <path d="M19.2395 28.3261H17.8672V26.9348H19.2395V28.3261Z"></path>
    <path d="M17.8672 28.3261H16.4949V26.9348H17.8672V28.3261Z"></path>
    <path d="M11.0056 28.3261H9.6333V26.9348H11.0056V28.3261Z"></path>
    <path d="M9.63331 28.3261H8.26099V26.9348H9.63331V28.3261Z"></path>
    <path d="M8.26099 28.3261H6.88867V26.9348H8.26099V28.3261Z"></path>
    <path d="M34.3347 26.9348H32.9624V25.5435H34.3347V26.9348Z"></path>
    <path d="M32.9624 26.9348H31.5901V25.5435H32.9624V26.9348Z"></path>
    <path d="M27.4731 26.9348H26.1008V25.5435H27.4731V26.9348Z"></path>
    <path d="M26.1008 26.9348H24.7285V25.5435H26.1008V26.9348Z"></path>
    <path d="M17.8672 26.9348H16.4949V25.5435H17.8672V26.9348Z"></path>
    <path d="M16.4949 26.9348H15.1226V25.5435H16.4949V26.9348Z"></path>
    <path d="M11.0056 26.9348H9.6333V25.5435H11.0056V26.9348Z"></path>
    <path d="M9.63331 26.9348H8.26099V25.5435H9.63331V26.9348Z"></path>
    <path d="M39.824 25.5435H38.4517V24.1522H39.824V25.5435Z"></path>
    <path d="M38.4517 25.5435H37.0793V24.1522H38.4517V25.5435Z"></path>
    <path d="M37.0794 25.5435H35.707V24.1522H37.0794V25.5435Z"></path>
    <path d="M32.9624 25.5435H31.5901V24.1522H32.9624V25.5435Z"></path>
    <path d="M28.8455 25.5435H27.4731V24.1522H28.8455V25.5435Z"></path>
    <path d="M27.4731 25.5435H26.1008V24.1522H27.4731V25.5435Z"></path>
    <path d="M16.4949 25.5435H15.1226V24.1522H16.4949V25.5435Z"></path>
    <path d="M15.1226 25.5435H13.7502V24.1522H15.1226V25.5435Z"></path>
    <path d="M11.0056 25.5435H9.6333V24.1522H11.0056V25.5435Z"></path>
    <path d="M6.88868 25.5435H5.51636V24.1522H6.88868V25.5435Z"></path>
    <path d="M5.51636 25.5435H4.14404V24.1522H5.51636V25.5435Z"></path>
    <path d="M4.14405 25.5435H2.77173V24.1522H4.14405V25.5435Z"></path>
    <path d="M43.9409 24.1522H42.5686V22.7609H43.9409V24.1522Z"></path>
    <path d="M38.4517 24.1522H37.0793V22.7609H38.4517V24.1522Z"></path>
    <path d="M37.0794 24.1522H35.707V22.7609H37.0794V24.1522Z"></path>
    <path d="M35.707 24.1522H34.3347V22.7609H35.707V24.1522Z"></path>
    <path d="M30.2178 24.1522H28.8455V22.7609H30.2178V24.1522Z"></path>
    <path d="M28.8455 24.1522H27.4731V22.7609H28.8455V24.1522Z"></path>
    <path d="M15.1226 24.1522H13.7502V22.7609H15.1226V24.1522Z"></path>
    <path d="M13.7502 24.1522H12.3779V22.7609H13.7502V24.1522Z"></path>
    <path d="M8.26099 24.1522H6.88867V22.7609H8.26099V24.1522Z"></path>
    <path d="M6.88868 24.1522H5.51636V22.7609H6.88868V24.1522Z"></path>
    <path d="M5.51636 24.1522H4.14404V22.7609H5.51636V24.1522Z"></path>
    <path d="M43.9409 22.7609H42.5686V21.3696H43.9409V22.7609Z"></path>
    <path d="M42.5686 22.7609H41.1963V21.3696H42.5686V22.7609Z"></path>
    <path d="M37.0794 22.7609H35.707V21.3696H37.0794V22.7609Z"></path>
    <path d="M35.707 22.7609H34.3347V21.3696H35.707V22.7609Z"></path>
    <path d="M34.3347 22.7609H32.9624V21.3696H34.3347V22.7609Z"></path>
    <path d="M31.5901 22.7609H30.2178V21.3696H31.5901V22.7609Z"></path>
    <path d="M30.2178 22.7609H28.8455V21.3696H30.2178V22.7609Z"></path>
    <path d="M21.9841 22.7609H20.6118V21.3696H21.9841V22.7609Z"></path>
    <path d="M13.7502 22.7609H12.3779V21.3696H13.7502V22.7609Z"></path>
    <path d="M12.3779 22.7609H11.0056V21.3696H12.3779V22.7609Z"></path>
    <path d="M9.63331 22.7609H8.26099V21.3696H9.63331V22.7609Z"></path>
    <path d="M8.26099 22.7609H6.88867V21.3696H8.26099V22.7609Z"></path>
    <path d="M6.88868 22.7609H5.51636V21.3696H6.88868V22.7609Z"></path>
    <path d="M1.37232 21.3696H0V19.9783H1.37232V21.3696Z"></path>
    <path d="M2.77173 21.3696H1.39941V19.9783H2.77173V21.3696Z"></path>
    <path d="M1.37232 22.7609H0V21.3696H1.37232V22.7609Z"></path>
    <path d="M1.37232 19.9783H0V18.587H1.37232V19.9783Z"></path>
    <path d="M43.9409 21.3696H42.5686V19.9783H43.9409V21.3696Z"></path>
    <path d="M42.5686 21.3696H41.1963V19.9783H42.5686V21.3696Z"></path>
    <path d="M41.1963 21.3696H39.824V19.9783H41.1963V21.3696Z"></path>
    <path d="M23.3562 21.3696H21.9839V19.9783H23.3562V21.3696Z"></path>
    <path d="M21.9841 21.3696H20.6118V19.9783H21.9841V21.3696Z"></path>
    <path d="M20.6118 21.3696H19.2395V19.9783H20.6118V21.3696Z"></path>
    <path d="M43.9409 19.9783H42.5686V18.587H43.9409V19.9783Z"></path>
    <path d="M42.5686 19.9783H41.1963V18.587H42.5686V19.9783Z"></path>
    <path d="M37.0794 19.9783H35.707V18.587H37.0794V19.9783Z"></path>
    <path d="M35.707 19.9783H34.3347V18.587H35.707V19.9783Z"></path>
    <path d="M34.3347 19.9783H32.9624V18.587H34.3347V19.9783Z"></path>
    <path d="M31.5901 19.9783H30.2178V18.587H31.5901V19.9783Z"></path>
    <path d="M30.2178 19.9783H28.8455V18.587H30.2178V19.9783Z"></path>
    <path d="M21.9841 19.9783H20.6118V18.587H21.9841V19.9783Z"></path>
    <path d="M13.7502 19.9783H12.3779V18.587H13.7502V19.9783Z"></path>
    <path d="M12.3779 19.9783H11.0056V18.587H12.3779V19.9783Z"></path>
    <path d="M9.63331 19.9783H8.26099V18.587H9.63331V19.9783Z"></path>
    <path d="M8.26099 19.9783H6.88867V18.587H8.26099V19.9783Z"></path>
    <path d="M6.88868 19.9783H5.51636V18.587H6.88868V19.9783Z"></path>
    <path d="M43.9409 18.5869H42.5686V17.1956H43.9409V18.5869Z"></path>
    <path d="M38.4517 18.5869H37.0793V17.1956H38.4517V18.5869Z"></path>
    <path d="M37.0794 18.5869H35.707V17.1956H37.0794V18.5869Z"></path>
    <path d="M35.707 18.5869H34.3347V17.1956H35.707V18.5869Z"></path>
    <path d="M30.2178 18.5869H28.8455V17.1956H30.2178V18.5869Z"></path>
    <path d="M28.8455 18.5869H27.4731V17.1956H28.8455V18.5869Z"></path>
    <path d="M15.1226 18.5869H13.7502V17.1956H15.1226V18.5869Z"></path>
    <path d="M13.7502 18.5869H12.3779V17.1956H13.7502V18.5869Z"></path>
    <path d="M8.26099 18.5869H6.88867V17.1956H8.26099V18.5869Z"></path>
    <path d="M6.88868 18.5869H5.51636V17.1956H6.88868V18.5869Z"></path>
    <path d="M5.51636 18.5869H4.14404V17.1956H5.51636V18.5869Z"></path>
    <path d="M39.824 17.1956H38.4517V15.8043H39.824V17.1956Z"></path>
    <path d="M38.4517 17.1956H37.0793V15.8043H38.4517V17.1956Z"></path>
    <path d="M37.0794 17.1956H35.707V15.8043H37.0794V17.1956Z"></path>
    <path d="M32.9624 17.1956H31.5901V15.8043H32.9624V17.1956Z"></path>
    <path d="M28.8455 17.1956H27.4731V15.8043H28.8455V17.1956Z"></path>
    <path d="M27.4731 17.1956H26.1008V15.8043H27.4731V17.1956Z"></path>
    <path d="M16.4949 17.1956H15.1226V15.8043H16.4949V17.1956Z"></path>
    <path d="M15.1226 17.1956H13.7502V15.8043H15.1226V17.1956Z"></path>
    <path d="M11.0056 17.1956H9.6333V15.8043H11.0056V17.1956Z"></path>
    <path d="M6.88868 17.1956H5.51636V15.8043H6.88868V17.1956Z"></path>
    <path d="M5.51636 17.1956H4.14404V15.8043H5.51636V17.1956Z"></path>
    <path d="M4.14405 17.1956H2.77173V15.8043H4.14405V17.1956Z"></path>
    <path d="M34.3347 15.8044H32.9624V14.413H34.3347V15.8044Z"></path>
    <path d="M32.9624 15.8044H31.5901V14.413H32.9624V15.8044Z"></path>
    <path d="M27.4731 15.8044H26.1008V14.413H27.4731V15.8044Z"></path>
    <path d="M26.1008 15.8044H24.7285V14.413H26.1008V15.8044Z"></path>
    <path d="M17.8672 15.8044H16.4949V14.413H17.8672V15.8044Z"></path>
    <path d="M16.4949 15.8044H15.1226V14.413H16.4949V15.8044Z"></path>
    <path d="M11.0056 15.8044H9.6333V14.413H11.0056V15.8044Z"></path>
    <path d="M9.63331 15.8044H8.26099V14.413H9.63331V15.8044Z"></path>
    <path d="M35.707 14.413H34.3347V13.0217H35.707V14.413Z"></path>
    <path d="M34.3347 14.413H32.9624V13.0217H34.3347V14.413Z"></path>
    <path d="M32.9624 14.413H31.5901V13.0217H32.9624V14.413Z"></path>
    <path d="M26.1008 14.413H24.7285V13.0217H26.1008V14.413Z"></path>
    <path d="M24.7285 14.413H23.3562V13.0217H24.7285V14.413Z"></path>
    <path d="M19.2395 14.413H17.8672V13.0217H19.2395V14.413Z"></path>
    <path d="M17.8672 14.413H16.4949V13.0217H17.8672V14.413Z"></path>
    <path d="M11.0056 14.413H9.6333V13.0217H11.0056V14.413Z"></path>
    <path d="M9.63331 14.413H8.26099V13.0217H9.63331V14.413Z"></path>
    <path d="M8.26099 14.413H6.88867V13.0217H8.26099V14.413Z"></path>
    <path d="M35.707 13.0217H34.3347V11.6304H35.707V13.0217Z"></path>
    <path d="M34.3347 13.0217H32.9624V11.6304H34.3347V13.0217Z"></path>
    <path d="M24.7285 13.0217H23.3562V11.6304H24.7285V13.0217Z"></path>
    <path d="M23.3562 13.0217H21.9839V11.6304H23.3562V13.0217Z"></path>
    <path d="M20.6118 13.0217H19.2395V11.6304H20.6118V13.0217Z"></path>
    <path d="M19.2395 13.0217H17.8672V11.6304H19.2395V13.0217Z"></path>
    <path d="M9.63331 13.0217H8.26099V11.6304H9.63331V13.0217Z"></path>
    <path d="M8.26099 13.0217H6.88867V11.6304H8.26099V13.0217Z"></path>
    <path d="M35.707 11.6304H34.3347V10.2391H35.707V11.6304Z"></path>
    <path d="M23.3562 11.6304H21.9839V10.2391H23.3562V11.6304Z"></path>
    <path d="M20.6118 11.6304H19.2395V10.2391H20.6118V11.6304Z"></path>
    <path d="M8.26099 11.6304H6.88867V10.2391H8.26099V11.6304Z"></path>
    <path d="M42.5686 10.2391H41.1963V8.8478H42.5686V10.2391Z"></path>
    <path d="M1.39942 10.2391H0.0270996V8.8478H1.39942V10.2391Z"></path>
    <path d="M42.5686 8.84781H41.1963V7.4565H42.5686V8.84781Z"></path>
    <path d="M41.1963 8.84781H39.824V7.4565H41.1963V8.84781Z"></path>
    <path d="M28.8455 8.84781H27.4731V7.4565H28.8455V8.84781Z"></path>
    <path d="M27.4731 8.84781H26.1008V7.4565H27.4731V8.84781Z"></path>
    <path d="M26.1008 8.84781H24.7285V7.4565H26.1008V8.84781Z"></path>
    <path d="M17.8672 8.84781H16.4949V7.4565H17.8672V8.84781Z"></path>
    <path d="M16.4949 8.84781H15.1226V7.4565H16.4949V8.84781Z"></path>
    <path d="M15.1226 8.84781H13.7502V7.4565H15.1226V8.84781Z"></path>
    <path d="M2.77173 8.84781H1.39941V7.4565H2.77173V8.84781Z"></path>
    <path d="M1.39942 8.84781H0.0270996V7.4565H1.39942V8.84781Z"></path>
    <path d="M42.5686 7.45651H41.1963V6.06521H42.5686V7.45651Z"></path>
    <path d="M41.1963 7.45651H39.824V6.06521H41.1963V7.45651Z"></path>
    <path d="M39.824 7.45651H38.4517V6.06521H39.824V7.45651Z"></path>
    <path d="M30.2178 7.45651H28.8455V6.06521H30.2178V7.45651Z"></path>
    <path d="M28.8455 7.45651H27.4731V6.06521H28.8455V7.45651Z"></path>
    <path d="M27.4731 7.45651H26.1008V6.06521H27.4731V7.45651Z"></path>
    <path d="M23.3562 7.45651H21.9839V6.06521H23.3562V7.45651Z"></path>
    <path d="M20.6118 7.45651H19.2395V6.06521H20.6118V7.45651Z"></path>
    <path d="M16.4949 7.45651H15.1226V6.06521H16.4949V7.45651Z"></path>
    <path d="M15.1226 7.45651H13.7502V6.06521H15.1226V7.45651Z"></path>
    <path d="M13.7502 7.45651H12.3779V6.06521H13.7502V7.45651Z"></path>
    <path d="M4.14405 7.45651H2.77173V6.06521H4.14405V7.45651Z"></path>
    <path d="M2.77173 7.45651H1.39941V6.06521H2.77173V7.45651Z"></path>
    <path d="M1.39942 7.45651H0.0270996V6.06521H1.39942V7.45651Z"></path>
    <path d="M41.1963 6.06522H39.824V4.67391H41.1963V6.06522Z"></path>
    <path d="M39.824 6.06522H38.4517V4.67391H39.824V6.06522Z"></path>
    <path d="M38.4517 6.06522H37.0793V4.67391H38.4517V6.06522Z"></path>
    <path d="M31.5901 6.06522H30.2178V4.67391H31.5901V6.06522Z"></path>
    <path d="M30.2178 6.06522H28.8455V4.67391H30.2178V6.06522Z"></path>
    <path d="M28.8455 6.06522H27.4731V4.67391H28.8455V6.06522Z"></path>
    <path d="M24.7285 6.06522H23.3562V4.67391H24.7285V6.06522Z"></path>
    <path d="M23.3562 6.06522H21.9839V4.67391H23.3562V6.06522Z"></path>
    <path d="M20.6118 6.06522H19.2395V4.67391H20.6118V6.06522Z"></path>
    <path d="M19.2395 6.06522H17.8672V4.67391H19.2395V6.06522Z"></path>
    <path d="M15.1226 6.06522H13.7502V4.67391H15.1226V6.06522Z"></path>
    <path d="M13.7502 6.06522H12.3779V4.67391H13.7502V6.06522Z"></path>
    <path d="M12.3779 6.06522H11.0056V4.67391H12.3779V6.06522Z"></path>
    <path d="M5.51636 6.06522H4.14404V4.67391H5.51636V6.06522Z"></path>
    <path d="M4.14405 6.06522H2.77173V4.67391H4.14405V6.06522Z"></path>
    <path d="M2.77173 6.06522H1.39941V4.67391H2.77173V6.06522Z"></path>
    <path d="M39.824 4.67389H38.4517V3.28259H39.824V4.67389Z"></path>
    <path d="M38.4517 4.67389H37.0793V3.28259H38.4517V4.67389Z"></path>
    <path d="M37.0794 4.67389H35.707V3.28259H37.0794V4.67389Z"></path>
    <path d="M26.1008 4.67389H24.7285V3.28259H26.1008V4.67389Z"></path>
    <path d="M24.7285 4.67389H23.3562V3.28259H24.7285V4.67389Z"></path>
    <path d="M23.3562 4.67389H21.9839V3.28259H23.3562V4.67389Z"></path>
    <path d="M20.6118 4.67389H19.2395V3.28259H20.6118V4.67389Z"></path>
    <path d="M19.2395 4.67389H17.8672V3.28259H19.2395V4.67389Z"></path>
    <path d="M17.8672 4.67389H16.4949V3.28259H17.8672V4.67389Z"></path>
    <path d="M6.88868 4.67389H5.51636V3.28259H6.88868V4.67389Z"></path>
    <path d="M5.51636 4.67389H4.14404V3.28259H5.51636V4.67389Z"></path>
    <path d="M4.14405 4.67389H2.77173V3.28259H4.14405V4.67389Z"></path>
    <path d="M43.9409 3.28259H42.5686V1.89129H43.9409V3.28259Z"></path>
    <path d="M38.4517 3.28259H37.0793V1.89129H38.4517V3.28259Z"></path>
    <path d="M37.0794 3.28259H35.707V1.89129H37.0794V3.28259Z"></path>
    <path d="M35.707 3.28259H34.3347V1.89129H35.707V3.28259Z"></path>
    <path d="M26.1008 3.28259H24.7285V1.89129H26.1008V3.28259Z"></path>
    <path d="M24.7285 3.28259H23.3562V1.89129H24.7285V3.28259Z"></path>
    <path d="M19.2395 3.28259H17.8672V1.89129H19.2395V3.28259Z"></path>
    <path d="M17.8672 3.28259H16.4949V1.89129H17.8672V3.28259Z"></path>
    <path d="M8.26099 3.28259H6.88867V1.89129H8.26099V3.28259Z"></path>
    <path d="M6.88868 3.28259H5.51636V1.89129H6.88868V3.28259Z"></path>
    <path d="M5.51636 3.28259H4.14404V1.89129H5.51636V3.28259Z"></path>
    <path d="M43.9409 1.8913H42.5686V0.499992H43.9409V1.8913Z"></path>
    <path d="M42.5686 1.8913H41.1963V0.499992H42.5686V1.8913Z"></path>
    <path d="M37.0794 1.8913H35.707V0.499992H37.0794V1.8913Z"></path>
    <path d="M35.707 1.8913H34.3347V0.499992H35.707V1.8913Z"></path>
    <path d="M34.3347 1.8913H32.9624V0.499992H34.3347V1.8913Z"></path>
    <path d="M26.1008 1.8913H24.7285V0.499992H26.1008V1.8913Z"></path>
    <path d="M17.8672 1.8913H16.4949V0.499992H17.8672V1.8913Z"></path>
    <path d="M9.63331 1.8913H8.26099V0.499992H9.63331V1.8913Z"></path>
    <path d="M8.26099 1.8913H6.88867V0.499992H8.26099V1.8913Z"></path>
    <path d="M6.88868 1.8913H5.51636V0.499992H6.88868V1.8913Z"></path>
    <path d="M1.39942 1.8913H0.0270996V0.499992H1.39942V1.8913Z"></path>
</symbol>
<symbol id="icon-instagram" viewBox="0 0 32 32">
<path d="M28.717 10.756c-0.016-1.074-0.215-2.14-0.596-3.145-0.667-1.716-2.024-3.073-3.743-3.737-0.994-0.373-2.044-0.573-3.108-0.596-1.368-0.061-1.801-0.078-5.273-0.078s-3.917 0-5.274 0.078c-1.062 0.023-2.112 0.223-3.106 0.596-1.719 0.664-3.078 2.021-3.743 3.737-0.374 0.992-0.576 2.041-0.596 3.101-0.061 1.367-0.080 1.8-0.080 5.265s0 3.909 0.080 5.265c0.021 1.062 0.222 2.109 0.596 3.104 0.667 1.714 2.024 3.071 3.744 3.735 0.989 0.386 2.040 0.605 3.106 0.639 1.369 0.061 1.803 0.080 5.274 0.080s3.916 0 5.274-0.080c1.062-0.021 2.113-0.221 3.108-0.595 1.719-0.666 3.076-2.022 3.743-3.737 0.374-0.994 0.574-2.041 0.596-3.104 0.061-1.365 0.080-1.798 0.080-5.265-0.003-3.466-0.003-3.906-0.082-5.264zM15.99 22.531c-3.631 0-6.572-2.936-6.572-6.561s2.941-6.561 6.572-6.561c3.628 0 6.572 2.936 6.572 6.561s-2.944 6.561-6.572 6.561zM22.823 10.696c-0.849 0-1.532-0.684-1.532-1.53s0.684-1.53 1.532-1.53c0.846 0 1.531 0.684 1.531 1.53s-0.685 1.53-1.531 1.53z"></path>
<path d="M15.992 19.976c2.211 0 4.004-1.793 4.004-4.004s-1.793-4.004-4.004-4.004c-2.211 0-4.004 1.793-4.004 4.004s1.793 4.004 4.004 4.004z"></path>
</symbol>
<symbol id="icon-star" viewBox="0 0 32 32">
<path d="M15.434 0.333c0.251-0.437 0.881-0.437 1.133 0l1.84 3.203c0.19 0.33 0.621 0.429 0.935 0.214l3.081-2.107c0.418-0.286 0.987-0.008 1.020 0.496l0.239 3.642c0.025 0.383 0.374 0.662 0.754 0.602l3.69-0.584c0.504-0.080 0.9 0.423 0.706 0.894l-1.386 3.36c-0.148 0.359 0.048 0.767 0.421 0.876l3.555 1.036c0.493 0.144 0.635 0.773 0.252 1.115l-2.731 2.433c-0.291 0.26-0.291 0.715 0 0.975l2.731 2.433c0.383 0.341 0.241 0.971-0.252 1.115l-3.555 1.036c-0.373 0.109-0.569 0.517-0.421 0.876l1.386 3.36c0.194 0.471-0.202 0.974-0.706 0.894l-3.69-0.584c-0.38-0.060-0.729 0.219-0.754 0.602l-0.239 3.642c-0.033 0.505-0.603 0.782-1.020 0.496l-3.081-2.107c-0.314-0.215-0.745-0.116-0.935 0.214l-1.84 3.203c-0.251 0.437-0.881 0.437-1.133 0l-1.84-3.203c-0.19-0.33-0.621-0.429-0.935-0.214l-3.081 2.107c-0.418 0.286-0.987 0.009-1.020-0.496l-0.239-3.642c-0.025-0.383-0.374-0.662-0.754-0.602l-3.69 0.584c-0.504 0.080-0.9-0.423-0.706-0.894l1.386-3.36c0.148-0.359-0.048-0.767-0.421-0.876l-3.555-1.036c-0.493-0.144-0.635-0.773-0.252-1.115l2.731-2.433c0.291-0.26 0.291-0.715 0-0.975l-2.731-2.433c-0.383-0.341-0.241-0.971 0.252-1.115l3.555-1.036c0.373-0.109 0.569-0.517 0.421-0.876l-1.386-3.36c-0.194-0.471 0.202-0.974 0.706-0.894l3.69 0.584c0.38 0.060 0.729-0.219 0.754-0.602l0.239-3.642c0.033-0.505 0.603-0.782 1.020-0.496l3.081 2.107c0.314 0.215 0.745 0.116 0.935-0.214l1.84-3.203z"></path>
</symbol>
<symbol id="icon-youtube" viewBox="0 0 32 32">
<path d="M24.24 6c-1.36-0.080-4.16-0.16-8.4-0.16h-0.56c-4.080 0-6.8 0.080-8.16 0.24-1.84 0.16-3.12 0.64-3.84 1.28-0.64 0.56-1.12 1.6-1.28 2.96-0.080 0.88-0.16 2.72-0.16 5.52v0.4c0 2.64 0.080 4.48 0.24 5.36 0.24 1.28 0.64 2.24 1.44 2.8 0.8 0.64 2.16 1.040 4.080 1.2 1.36 0.080 4.16 0.16 8.4 0.16h0.56c4.080 0 6.8-0.080 8.16-0.24 1.84-0.16 3.12-0.64 3.84-1.28 0.64-0.56 1.12-1.6 1.28-2.96 0.080-0.88 0.16-2.72 0.16-5.52v-0.4c0-2.64-0.080-4.48-0.24-5.36-0.24-1.28-0.64-2.24-1.44-2.8-0.8-0.64-2.16-1.040-4.080-1.2zM21.12 15.84l-8.8 5.28v-10.56l8.8 5.28z"></path>
</symbol>
<defs>
<symbol id="icon-cross" viewBox="0 0 32 32">
<path stroke-linejoin="round" stroke-linecap="round" stroke-miterlimit="4" stroke-width="1.7778" d="M24 8l-16 16"></path>
<path stroke-linejoin="round" stroke-linecap="round" stroke-miterlimit="4" stroke-width="1.7778" d="M8 8l16 16"></path>
</symbol>
<symbol id="icon-menu" viewBox="0 0 48 32">
<path fill="none" stroke-linejoin="miter" stroke-linecap="round" stroke-miterlimit="4" stroke-width="2.6667" d="M8.638 5.455h38.029"></path>
<path fill="none" stroke-linejoin="miter" stroke-linecap="round" stroke-miterlimit="4" stroke-width="2.6667" d="M8.638 24.849h38.029"></path>
<path fill="none" stroke-linejoin="miter" stroke-linecap="round" stroke-miterlimit="4" stroke-width="2.6667" d="M20.116 15.151h26.551"></path>
</symbol>

</defs>
</svg>
